#define desk_width 16
#define desk_height 16
static unsigned char desk_bits[] = {
   0x00, 0x00, 0x00, 0x00, 0x00, 0x00, 0x00, 0x0c, 0x30, 0x0e, 0x30, 0x0e,
   0xf0, 0x0f, 0xfc, 0x0f, 0xfc, 0x0f, 0xf0, 0x0f, 0x30, 0x0e, 0x30, 0x0e,
   0x00, 0x0c, 0x00, 0x00, 0x00, 0x00, 0x00, 0x00 };
