#define max_width 16
#define max_height 16
static unsigned char max_bits[] = {
   0x00, 0x00, 0x00, 0x00, 0xfc, 0x3f, 0xfc, 0x3f, 0xfc, 0x3f, 0x1c, 0x38,
   0x1c, 0x38, 0x1c, 0x38, 0x1c, 0x38, 0x1c, 0x38, 0x1c, 0x38, 0xfc, 0x3f,
   0xfc, 0x3f, 0xfc, 0x3f, 0x00, 0x00, 0x00, 0x00 };
