#define menu_width 16
#define menu_height 16
static unsigned char menu_bits[] = {
   0x00, 0x00, 0x00, 0x00, 0x00, 0x00, 0xf8, 0x1f, 0xf8, 0x1f, 0x00, 0x00,
   0x00, 0x00, 0xf8, 0x1f, 0xf8, 0x1f, 0x00, 0x00, 0x00, 0x00, 0xf8, 0x1f,
   0xf8, 0x1f, 0x00, 0x00, 0x00, 0x00, 0x00, 0x00 };
